<svg width="1080" height="1380" viewBox="0 0 1080 1380" fill="none" xmlns="http://www.w3.org/2000/svg">
<g clip-path="url(#clip0_81_21)">
<rect width="1080" height="1380" fill="#E2DDD6"/>
<rect y="460" width="1080" height="460" fill="#FF4800"/>
<path d="M107.24 523.44C113.256 523.44 119.528 525.008 119.528 534.704C119.528 544.432 113.256 546 107.24 546H98.92V523.44H107.24ZM107.24 541.52C111.24 541.52 114.408 541.2 114.408 534.704C114.408 528.24 111.24 527.92 107.24 527.92H104.04V541.52H107.24ZM120.484 537.712C120.484 532.592 123.972 529.52 128.996 529.52C134.02 529.52 137.54 532.496 137.54 537.392V538.992H125.284C125.284 540.848 126.628 542.16 129.54 542.16C131.332 542.16 132.676 541.52 132.996 540.304H138.116C137.796 542.64 135.14 546.32 129.54 546.32C123.332 546.32 120.484 542.288 120.484 537.712ZM125.284 536.112H132.74C132.74 534.896 131.844 533.68 128.996 533.68C126.148 533.68 125.284 534.896 125.284 536.112ZM139.062 537.712C139.062 532.592 142.55 529.52 147.574 529.52C152.598 529.52 156.118 532.496 156.118 537.392V538.992H143.862C143.862 540.848 145.206 542.16 148.118 542.16C149.91 542.16 151.254 541.52 151.574 540.304H156.694C156.374 542.64 153.718 546.32 148.118 546.32C141.91 546.32 139.062 542.288 139.062 537.712ZM143.862 536.112H151.318C151.318 534.896 150.422 533.68 147.574 533.68C144.726 533.68 143.862 534.896 143.862 536.112ZM157.969 529.84H163.089V530.832L162.129 533.712H163.409C164.241 531.568 165.777 529.52 169.777 529.52C174.449 529.52 176.785 533.36 176.785 537.936C176.785 542.512 174.449 546.32 169.777 546.32C165.777 546.32 164.241 544.272 163.409 542.128H162.129L163.089 545.008V552.08H157.969V529.84ZM163.089 537.936C163.089 540.688 164.625 541.84 167.377 541.84C170.129 541.84 171.665 540.688 171.665 537.936C171.665 535.184 170.129 534 167.377 534C164.625 534 163.089 535.184 163.089 537.936ZM187.369 534.704C187.369 528.144 191.721 523.12 198.889 523.12C206.025 523.12 210.377 528.144 210.377 534.704C210.377 541.296 206.025 546.32 198.889 546.32C191.721 546.32 187.369 541.296 187.369 534.704ZM192.489 534.704C192.489 539.056 194.633 541.84 198.889 541.84C203.145 541.84 205.257 539.056 205.257 534.704C205.257 530.384 203.145 527.6 198.889 527.6C194.633 527.6 192.489 530.384 192.489 534.704ZM212.299 546V532.272C212.299 530.512 213.291 529.552 215.051 529.584L225.643 529.84V534.32L217.419 534.128V546H212.299ZM225.987 541.584C225.987 538.8 227.651 537.168 232.451 536.496L237.539 535.792C237.539 534.48 236.515 533.68 234.307 533.68C232.259 533.68 231.107 534.544 231.107 536.016H226.307C226.307 531.92 229.795 529.52 234.307 529.52C238.755 529.52 242.659 531.664 242.659 536.976V541.52H244.995V546H241.443C239.907 546 239.043 545.136 239.043 543.6V543.28L239.843 541.36H238.563C237.955 544.048 236.387 546.32 231.875 546.32C226.851 546.32 225.987 543.248 225.987 541.584ZM231.107 540.624C231.107 541.552 232.003 541.84 232.867 541.84C235.683 541.84 237.539 540.656 237.539 538.672L233.411 539.248C231.875 539.472 231.107 539.696 231.107 540.624ZM255.997 534C253.213 534 251.389 535.472 251.389 540.016V546H246.269V529.84H251.389V531.792L250.429 534.672H251.709C252.349 531.792 254.365 529.52 257.821 529.52C261.949 529.52 264.445 532.272 264.445 537.264V546H259.325V538.064C259.325 535.12 258.461 534 255.997 534ZM284.979 529.84H286.387V534.32H285.299C284.819 534.32 284.243 534.32 283.795 534.608C283.987 534.864 284.243 535.6 284.243 536.464C284.243 539.504 281.395 541.424 276.947 542.928C280.627 542.704 284.051 543.664 284.051 547.088C284.051 551.856 278.451 552.4 266.451 552.4V547.92C276.915 547.92 278.899 547.76 278.899 546C278.899 543.632 273.107 544.688 268.147 545.52L267.603 542.64C271.283 542.256 274.611 541.872 277.555 541.168V539.888C271.635 542 265.395 541.136 265.395 535.824C265.395 531.568 269.427 529.52 274.515 529.52C276.979 529.52 279.219 530 280.915 531.248C281.875 530 283.539 529.84 284.979 529.84ZM274.835 538.288C277.907 538.288 279.123 537.52 279.123 536.144C279.123 534.8 277.907 534 274.835 534C271.763 534 270.515 534.8 270.515 536.144C270.515 537.52 271.763 538.288 274.835 538.288ZM286.724 537.712C286.724 532.592 290.212 529.52 295.236 529.52C300.26 529.52 303.78 532.496 303.78 537.392V538.992H291.524C291.524 540.848 292.868 542.16 295.78 542.16C297.572 542.16 298.916 541.52 299.236 540.304H304.356C304.036 542.64 301.38 546.32 295.78 546.32C289.572 546.32 286.724 542.288 286.724 537.712ZM291.524 536.112H298.98C298.98 534.896 298.084 533.68 295.236 533.68C292.388 533.68 291.524 534.896 291.524 536.112Z" fill="white"/>
<path d="M110.467 801.373H112.377V818H110.467V810.618H100.656V818H98.7217V801.373H100.656V808.967H110.467V801.373ZM114.545 811.986C114.545 808.212 116.904 806.043 120.229 806.043C123.531 806.043 125.701 808.142 125.701 811.75V812.505H116.432C116.55 814.722 117.611 816.632 120.512 816.632C122.446 816.632 123.743 815.689 124.168 813.896H126.102C125.654 815.712 124.239 818.236 120.512 818.236C116.314 818.236 114.545 815.359 114.545 811.986ZM116.432 811.043H123.814C123.814 809.156 122.564 807.67 120.229 807.67C117.918 807.67 116.432 809.156 116.432 811.043ZM126.344 818L130.754 812.41V811.844L126.344 806.279H128.632L132.193 810.995L135.754 806.279H138.042L133.632 811.844V812.41L138.042 818H135.754L132.193 813.26L128.632 818H126.344Z" fill="white"/>
<path d="M98.7217 854V837.373H109.618V839.024H100.656V845.651L108.509 845.179V846.854L100.656 847.326V854H98.7217ZM111.839 854V837.373H122.735V839.024H113.773V845.651L121.626 845.179V846.854L113.773 847.326V854H111.839ZM137.897 848.67V850.321H135.751V854H133.817V850.321H124.996V846.877C128.77 845.274 131.907 841.948 132.402 837.373H134.336C133.723 842.019 131.175 845.934 125.562 848.434V849L126.93 848.67H133.817V842.632H135.751V848.67H137.897ZM139.672 849.425C139.672 847.019 141.111 845.793 143.634 845.132V844.566C141.771 844.024 140.616 843.104 140.616 841.076C140.616 838.363 143.139 837.137 146.417 837.137C149.672 837.137 152.196 838.363 152.196 841.076C152.196 843.104 151.04 844.024 149.177 844.566V845.132C151.7 845.793 153.139 847.066 153.139 849.425C153.139 852.255 150.663 854.236 146.417 854.236C142.125 854.236 139.672 852.255 139.672 849.425ZM142.55 841.406C142.55 843.411 143.988 844.047 146.417 844.047C148.823 844.047 150.262 843.411 150.262 841.406C150.262 839.448 148.823 838.788 146.417 838.788C143.988 838.788 142.55 839.448 142.55 841.406ZM141.606 849.142C141.606 851.217 143.092 852.585 146.417 852.585C149.719 852.585 151.205 851.217 151.205 849.142C151.205 847.09 149.719 845.698 146.417 845.698C143.092 845.698 141.606 847.09 141.606 849.142ZM161.991 837.137C166.613 837.137 169.042 840.793 169.042 845.675C169.042 850.58 166.613 854.236 161.991 854.236C157.321 854.236 154.892 850.58 154.892 845.675C154.892 840.793 157.321 837.137 161.991 837.137ZM161.991 838.788C158.524 838.788 156.802 841.665 156.802 845.675C156.802 847.231 157.062 848.599 157.557 849.708L165.387 840.156C164.538 839.283 163.429 838.788 161.991 838.788ZM161.991 852.585C165.434 852.585 167.132 849.708 167.132 845.675C167.132 844.118 166.873 842.75 166.377 841.642L158.547 851.193C159.396 852.09 160.528 852.585 161.991 852.585ZM178.194 837.137C182.817 837.137 185.246 840.793 185.246 845.675C185.246 850.58 182.817 854.236 178.194 854.236C173.524 854.236 171.095 850.58 171.095 845.675C171.095 840.793 173.524 837.137 178.194 837.137ZM178.194 838.788C174.727 838.788 173.005 841.665 173.005 845.675C173.005 847.231 173.265 848.599 173.76 849.708L181.59 840.156C180.741 839.283 179.633 838.788 178.194 838.788ZM178.194 852.585C181.637 852.585 183.335 849.708 183.335 845.675C183.335 844.118 183.076 842.75 182.581 841.642L174.751 851.193C175.6 852.09 176.732 852.585 178.194 852.585Z" fill="white"/>
<rect y="920" width="1080" height="460" fill="#E2DDD6"/>
<path d="M98.6 994.704C98.6 987.824 103.432 983.12 109.96 983.12C115.624 983.12 120.008 986.576 120.68 991.504H115.56C115.048 988.848 113.352 987.6 109.96 987.6C106.024 987.6 103.72 989.744 103.72 994.704C103.72 999.696 105.544 1001.84 109.256 1001.84C112.328 1001.84 114.248 1000.3 114.248 997.264H109.032V993.424H120.808C122.568 993.424 123.528 994.384 123.528 996.144V1006H118.408V998.224L119.368 994.704H118.088C118.056 1001.78 115.272 1006.32 109.064 1006.32C102.312 1006.32 98.6 1001.62 98.6 994.704ZM125.436 1006V992.272C125.436 990.512 126.428 989.552 128.188 989.584L138.78 989.84V994.32L130.556 994.128V1006H125.436ZM139.125 1001.58C139.125 998.8 140.789 997.168 145.589 996.496L150.677 995.792C150.677 994.48 149.653 993.68 147.445 993.68C145.397 993.68 144.245 994.544 144.245 996.016H139.445C139.445 991.92 142.933 989.52 147.445 989.52C151.893 989.52 155.797 991.664 155.797 996.976V1001.52H158.133V1006H154.581C153.045 1006 152.181 1005.14 152.181 1003.6V1003.28L152.981 1001.36H151.701C151.093 1004.05 149.525 1006.32 145.013 1006.32C139.989 1006.32 139.125 1003.25 139.125 1001.58ZM144.245 1000.62C144.245 1001.55 145.141 1001.84 146.005 1001.84C148.821 1001.84 150.677 1000.66 150.677 998.672L146.549 999.248C145.013 999.472 144.245 999.696 144.245 1000.62ZM169.339 989.84H175.131L167.739 1005.04V1010.03C167.739 1011.82 166.747 1012.78 164.987 1012.72L157.083 1012.5V1008.02L162.619 1008.11V1005.04L155.227 989.84H160.987L164.539 998.736V1001.3H165.819V998.736L169.339 989.84Z" fill="#1D1D1D"/>
<path d="M110.467 1261.37H112.377V1278H110.467V1270.62H100.656V1278H98.7217V1261.37H100.656V1268.97H110.467V1261.37ZM114.545 1271.99C114.545 1268.21 116.904 1266.04 120.229 1266.04C123.531 1266.04 125.701 1268.14 125.701 1271.75V1272.5H116.432C116.55 1274.72 117.611 1276.63 120.512 1276.63C122.446 1276.63 123.743 1275.69 124.168 1273.9H126.102C125.654 1275.71 124.239 1278.24 120.512 1278.24C116.314 1278.24 114.545 1275.36 114.545 1271.99ZM116.432 1271.04H123.814C123.814 1269.16 122.564 1267.67 120.229 1267.67C117.918 1267.67 116.432 1269.16 116.432 1271.04ZM126.344 1278L130.754 1272.41V1271.84L126.344 1266.28H128.632L132.193 1271L135.754 1266.28H138.042L133.632 1271.84V1272.41L138.042 1278H135.754L132.193 1273.26L128.632 1278H126.344Z" fill="#1D1D1D"/>
<path d="M98.7217 1314V1297.37H109.028V1299.02H100.656V1304.85H107.849V1306.5H100.656V1312.35H109.028V1314H98.7217ZM111.068 1305.39C111.068 1299.4 114.228 1297.14 118.214 1297.14C121.751 1297.14 124.157 1299.09 124.157 1302.73C124.157 1308.13 118.733 1311.03 111.869 1312.11V1312.66L113.237 1312.35H124.157V1314H111.303V1310.63C113.002 1310.39 122.223 1308.79 122.223 1302.7C122.223 1300.13 120.784 1298.79 118.261 1298.79C115.195 1298.79 113.002 1300.44 113.002 1305.39H111.068ZM132.127 1297.37C136.16 1297.37 140.453 1298.53 140.453 1305.67C140.453 1312.84 136.16 1314 132.127 1314H126.844V1297.37H132.127ZM132.127 1312.35C135.075 1312.35 138.519 1311.83 138.519 1305.67C138.519 1299.54 135.075 1299.02 132.127 1299.02H128.778V1312.35H132.127ZM148.008 1297.37C152.041 1297.37 156.333 1298.53 156.333 1305.67C156.333 1312.84 152.041 1314 148.008 1314H142.725V1297.37H148.008ZM148.008 1312.35C150.956 1312.35 154.399 1311.83 154.399 1305.67C154.399 1299.54 150.956 1299.02 148.008 1299.02H144.659V1312.35H148.008ZM163.889 1297.37C167.922 1297.37 172.214 1298.53 172.214 1305.67C172.214 1312.84 167.922 1314 163.889 1314H158.606V1297.37H163.889ZM163.889 1312.35C166.837 1312.35 170.28 1311.83 170.28 1305.67C170.28 1299.54 166.837 1299.02 163.889 1299.02H160.54V1312.35H163.889ZM174.712 1306.22C174.712 1300.82 176.669 1296.59 182.023 1297.14L186.834 1297.61V1299.26L182.023 1298.79C178.037 1298.39 176.716 1301.45 176.268 1304.75L175.726 1306.1H176.268C176.74 1303.69 179.122 1302.04 182.094 1302.04C185.82 1302.04 188.037 1304.54 188.037 1308.03C188.037 1311.64 185.513 1314.24 181.386 1314.24C177.4 1314.24 174.712 1311.57 174.712 1306.22ZM176.646 1308.27C176.646 1310.39 178.367 1312.58 181.386 1312.58C184.381 1312.58 186.103 1310.93 186.103 1308.03C186.103 1305.42 184.594 1303.69 181.834 1303.69C178.886 1303.69 176.646 1305.44 176.646 1308.27Z" fill="#1D1D1D"/>
<rect width="1080" height="460" fill="#1D1D1D"/>
<path d="M98.92 86V63.44H106.856C113.128 63.44 116.168 64.528 116.168 68.976C116.168 73.2 113.16 73.296 110.76 73.488V74.768C114.184 74.896 117.832 75.216 117.832 80.016C117.832 85.136 113.128 86 107.24 86H98.92ZM104.04 72.016H107.496C109.576 72.016 111.048 72.016 111.048 69.968C111.048 67.92 109.576 67.92 107.496 67.92H104.04V72.016ZM104.04 81.52H107.88C110.92 81.52 112.712 81.52 112.712 79.024C112.712 76.496 110.92 76.496 107.88 76.496H104.04V81.52ZM118.476 86V81.52H122.956V66.768L119.116 66.96V62.48L125.292 62.256C127.084 62.192 128.076 63.152 128.076 64.944V81.52H132.556V86H118.476ZM133.531 81.584C133.531 78.8 135.195 77.168 139.995 76.496L145.083 75.792C145.083 74.48 144.059 73.68 141.851 73.68C139.803 73.68 138.651 74.544 138.651 76.016H133.851C133.851 71.92 137.339 69.52 141.851 69.52C146.299 69.52 150.203 71.664 150.203 76.976V81.52H152.539V86H148.987C147.451 86 146.587 85.136 146.587 83.6V83.28L147.387 81.36H146.107C145.499 84.048 143.931 86.32 139.419 86.32C134.395 86.32 133.531 83.248 133.531 81.584ZM138.651 80.624C138.651 81.552 139.547 81.84 140.411 81.84C143.227 81.84 145.083 80.656 145.083 78.672L140.955 79.248C139.419 79.472 138.651 79.696 138.651 80.624ZM152.86 77.904C152.86 72.528 156.54 69.52 161.692 69.52C166.108 69.52 170.14 71.92 170.364 76.528H165.244C165.052 75.088 163.74 74 161.692 74C159.26 74 157.98 75.44 157.98 77.904C157.98 80.4 159.26 81.84 161.692 81.84C163.74 81.84 165.052 80.752 165.244 79.312H170.364C170.14 83.92 166.108 86.32 161.692 86.32C156.54 86.32 152.86 83.312 152.86 77.904ZM184.345 86L180.313 79.76L176.761 81.424V86H171.641V62.48H176.761V76.144L184.153 72.752L184.089 69.84H189.209V73.36C189.209 74.896 188.601 75.888 187.193 76.56L184.697 77.712L190.169 86H184.345Z" fill="white"/>
<path d="M110.467 341.373H112.377V358H110.467V350.618H100.656V358H98.7217V341.373H100.656V348.967H110.467V341.373ZM114.545 351.986C114.545 348.212 116.904 346.043 120.229 346.043C123.531 346.043 125.701 348.142 125.701 351.75V352.505H116.432C116.55 354.722 117.611 356.632 120.512 356.632C122.446 356.632 123.743 355.689 124.168 353.896H126.102C125.654 355.712 124.239 358.236 120.512 358.236C116.314 358.236 114.545 355.359 114.545 351.986ZM116.432 351.043H123.814C123.814 349.156 122.564 347.67 120.229 347.67C117.918 347.67 116.432 349.156 116.432 351.043ZM126.344 358L130.754 352.41V351.844L126.344 346.279H128.632L132.193 350.995L135.754 346.279H138.042L133.632 351.844V352.41L138.042 358H135.754L132.193 353.26L128.632 358H126.344Z" fill="white"/>
<path d="M98.2264 384.755C101.387 383.481 102.472 380.651 102.519 377.373H106.434V394H104.5V379.26L104.83 377.915H104.264C104.028 381.595 102.967 385.061 98.8396 386.406L98.2264 384.755ZM114.911 377.373C118.944 377.373 123.236 378.529 123.236 385.675C123.236 392.844 118.944 394 114.911 394H109.628V377.373H114.911ZM114.911 392.349C117.859 392.349 121.302 391.83 121.302 385.675C121.302 379.543 117.859 379.024 114.911 379.024H111.562V392.349H114.911ZM125.474 384.755C128.634 383.481 129.719 380.651 129.766 377.373H133.681V394H131.747V379.26L132.077 377.915H131.511C131.276 381.595 130.214 385.061 126.087 386.406L125.474 384.755ZM142.158 377.373C146.191 377.373 150.483 378.529 150.483 385.675C150.483 392.844 146.191 394 142.158 394H136.875V377.373H142.158ZM142.158 392.349C145.106 392.349 148.549 391.83 148.549 385.675C148.549 379.543 145.106 379.024 142.158 379.024H138.809V392.349H142.158ZM152.721 384.755C155.882 383.481 156.967 380.651 157.014 377.373H160.929V394H158.995V379.26L159.325 377.915H158.759C158.523 381.595 157.462 385.061 153.334 386.406L152.721 384.755ZM169.405 377.373C173.438 377.373 177.731 378.529 177.731 385.675C177.731 392.844 173.438 394 169.405 394H164.123V377.373H169.405ZM169.405 392.349C172.354 392.349 175.797 391.83 175.797 385.675C175.797 379.543 172.354 379.024 169.405 379.024H166.056V392.349H169.405Z" fill="white"/>
<path d="M98.92 86V63.44H106.856C113.128 63.44 116.168 64.528 116.168 68.976C116.168 73.2 113.16 73.296 110.76 73.488V74.768C114.184 74.896 117.832 75.216 117.832 80.016C117.832 85.136 113.128 86 107.24 86H98.92ZM104.04 72.016H107.496C109.576 72.016 111.048 72.016 111.048 69.968C111.048 67.92 109.576 67.92 107.496 67.92H104.04V72.016ZM104.04 81.52H107.88C110.92 81.52 112.712 81.52 112.712 79.024C112.712 76.496 110.92 76.496 107.88 76.496H104.04V81.52ZM118.476 86V81.52H122.956V66.768L119.116 66.96V62.48L125.292 62.256C127.084 62.192 128.076 63.152 128.076 64.944V81.52H132.556V86H118.476ZM133.531 81.584C133.531 78.8 135.195 77.168 139.995 76.496L145.083 75.792C145.083 74.48 144.059 73.68 141.851 73.68C139.803 73.68 138.651 74.544 138.651 76.016H133.851C133.851 71.92 137.339 69.52 141.851 69.52C146.299 69.52 150.203 71.664 150.203 76.976V81.52H152.539V86H148.987C147.451 86 146.587 85.136 146.587 83.6V83.28L147.387 81.36H146.107C145.499 84.048 143.931 86.32 139.419 86.32C134.395 86.32 133.531 83.248 133.531 81.584ZM138.651 80.624C138.651 81.552 139.547 81.84 140.411 81.84C143.227 81.84 145.083 80.656 145.083 78.672L140.955 79.248C139.419 79.472 138.651 79.696 138.651 80.624ZM152.86 77.904C152.86 72.528 156.54 69.52 161.692 69.52C166.108 69.52 170.14 71.92 170.364 76.528H165.244C165.052 75.088 163.74 74 161.692 74C159.26 74 157.98 75.44 157.98 77.904C157.98 80.4 159.26 81.84 161.692 81.84C163.74 81.84 165.052 80.752 165.244 79.312H170.364C170.14 83.92 166.108 86.32 161.692 86.32C156.54 86.32 152.86 83.312 152.86 77.904ZM184.345 86L180.313 79.76L176.761 81.424V86H171.641V62.48H176.761V76.144L184.153 72.752L184.089 69.84H189.209V73.36C189.209 74.896 188.601 75.888 187.193 76.56L184.697 77.712L190.169 86H184.345Z" fill="white"/>
<path d="M110.467 341.373H112.377V358H110.467V350.618H100.656V358H98.7217V341.373H100.656V348.967H110.467V341.373ZM114.545 351.986C114.545 348.212 116.904 346.043 120.229 346.043C123.531 346.043 125.701 348.142 125.701 351.75V352.505H116.432C116.55 354.722 117.611 356.632 120.512 356.632C122.446 356.632 123.743 355.689 124.168 353.896H126.102C125.654 355.712 124.239 358.236 120.512 358.236C116.314 358.236 114.545 355.359 114.545 351.986ZM116.432 351.043H123.814C123.814 349.156 122.564 347.67 120.229 347.67C117.918 347.67 116.432 349.156 116.432 351.043ZM126.344 358L130.754 352.41V351.844L126.344 346.279H128.632L132.193 350.995L135.754 346.279H138.042L133.632 351.844V352.41L138.042 358H135.754L132.193 353.26L128.632 358H126.344Z" fill="white"/>
<path d="M98.2264 384.755C101.387 383.481 102.472 380.651 102.519 377.373H106.434V394H104.5V379.26L104.83 377.915H104.264C104.028 381.595 102.967 385.061 98.8396 386.406L98.2264 384.755ZM114.911 377.373C118.944 377.373 123.236 378.529 123.236 385.675C123.236 392.844 118.944 394 114.911 394H109.628V377.373H114.911ZM114.911 392.349C117.859 392.349 121.302 391.83 121.302 385.675C121.302 379.543 117.859 379.024 114.911 379.024H111.562V392.349H114.911ZM125.474 384.755C128.634 383.481 129.719 380.651 129.766 377.373H133.681V394H131.747V379.26L132.077 377.915H131.511C131.276 381.595 130.214 385.061 126.087 386.406L125.474 384.755ZM142.158 377.373C146.191 377.373 150.483 378.529 150.483 385.675C150.483 392.844 146.191 394 142.158 394H136.875V377.373H142.158ZM142.158 392.349C145.106 392.349 148.549 391.83 148.549 385.675C148.549 379.543 145.106 379.024 142.158 379.024H138.809V392.349H142.158ZM152.721 384.755C155.882 383.481 156.967 380.651 157.014 377.373H160.929V394H158.995V379.26L159.325 377.915H158.759C158.523 381.595 157.462 385.061 153.334 386.406L152.721 384.755ZM169.405 377.373C173.438 377.373 177.731 378.529 177.731 385.675C177.731 392.844 173.438 394 169.405 394H164.123V377.373H169.405ZM169.405 392.349C172.354 392.349 175.797 391.83 175.797 385.675C175.797 379.543 172.354 379.024 169.405 379.024H166.056V392.349H169.405Z" fill="white"/>
</g>
<defs>
<clipPath id="clip0_81_21">
<rect width="1080" height="1380" fill="white"/>
</clipPath>
</defs>
</svg>
